<svg xmlns="http://www.w3.org/2000/svg" version="1.1" xmlns:xlink="http://www.w3.org/1999/xlink" xmlns:svgjs="http://svgjs.dev/svgjs" width="128" height="128" viewBox="0 0 128 128"><g transform="matrix(0.64375,0,0,0.64375,22.97220379078076,12.760752631578946)"><svg viewBox="0 0 76 95" data-background-color="#ffffff" preserveAspectRatio="xMidYMid meet" height="160" width="128" xmlns="http://www.w3.org/2000/svg" xmlns:xlink="http://www.w3.org/1999/xlink"><g id="tight-bounds" transform="matrix(1,0,0,1,-0.15882873906963368,-0.24049999999999727)"><svg viewBox="0 0 76.31765747813925 95.481" height="95.481" width="76.31765747813925"><g><svg viewBox="0 0 76.31765747813925 95.481" height="95.481" width="76.31765747813925"><g><svg viewBox="0 0 76.31765747813925 95.481" height="95.481" width="76.31765747813925"><g id="textblocktransform"><svg viewBox="0 0 76.31765747813925 95.481" height="95.481" width="76.31765747813925" id="textblock"><g><svg viewBox="0 0 76.31765747813925 95.481" height="95.481" width="76.31765747813925"><g><svg viewBox="0 0 76.31765747813925 95.481" height="95.481" width="76.31765747813925"><g><svg xmlns="http://www.w3.org/2000/svg" xmlns:xlink="http://www.w3.org/1999/xlink" version="1.1" x="0" y="0" viewBox="14.195 5.205 71.6090000467789 89.59" enable-background="new 0 0 100 100" xml:space="preserve" height="95.481" width="76.31765747813925" class="icon-icon-0" data-fill-palette-color="accent" id="icon-0"><g fill="#f88932" data-fill-palette-color="accent"><path d="M50 5.205c-19.775 0-35.805 16.03-35.805 35.803 0 9.889 4.397 18.471 10.487 25.319L50 94.795l25.318-28.468c6.088-6.849 10.486-15.431 10.486-25.317C85.805 21.235 69.773 5.205 50 5.205zM71.662 62.67C65.877 68.457 58.184 71.645 50 71.645c-8.183 0-15.877-3.188-21.662-8.975-5.786-5.787-8.973-13.479-8.973-21.662 0-16.89 13.742-30.634 30.635-30.634 16.893 0 30.637 13.744 30.637 30.634C80.637 49.191 77.448 56.886 71.662 62.67z" fill="#f88932" data-fill-palette-color="accent"></path><path d="M38.175 32.438c0-0.305-0.021-0.605-0.061-0.9-0.229 1.698-1.1 3.191-2.359 4.23L34.75 35.51l1.271-1.323-1.822 0.216 0.707-1.693-1.621 0.859 0.047-1.833-1.2 1.386-0.618-1.727-0.618 1.727-1.201-1.386 0.047 1.833-1.62-0.859 0.706 1.693-1.821-0.216 1.269 1.323-0.98 0.253c-1.256-1.04-2.123-2.53-2.353-4.226-0.039 0.295-0.062 0.595-0.062 0.9 0 3.672 2.977 6.648 6.648 6.648C35.2 39.085 38.175 36.109 38.175 32.438z" fill="#f88932" data-fill-palette-color="accent"></path><path d="M49.999 11.8c-16.105 0-29.208 13.103-29.208 29.208 0 7.801 3.037 15.136 8.554 20.653 5.515 5.518 12.85 8.557 20.654 8.557 7.804 0 15.139-3.039 20.653-8.557 5.518-5.514 8.556-12.85 8.556-20.653C79.207 24.902 66.104 11.8 49.999 11.8zM25.787 55.502l2.576-0.221-0.232 2.732 2.248-1.57 1.163 2.481 1.162-2.481 2.248 1.57-0.233-2.732 2.731 0.234-1.568-2.248 2.482-1.164-2.482-1.162 1.568-2.249-2.731 0.234 0.233-2.729-2.248 1.567-1.162-2.482-1.163 2.482-2.248-1.567 0.232 2.729-2.73-0.234 1.568 2.249-2.482 1.162 2.482 1.164-1.48 2.121c-2.562-4.308-3.93-9.239-3.93-14.381 0-7.537 2.978-14.388 7.811-19.453l31.928 19.904H35.538l24.591 24.089H36.077c-2.178-1.24-4.206-2.773-6.025-4.594C28.392 59.294 26.965 57.464 25.787 55.502z" fill="#f88932" data-fill-palette-color="accent"></path></g></svg></g></svg></g></svg></g></svg></g></svg></g></svg></g><defs></defs></svg><rect width="76.31765747813925" height="95.481" fill="none" stroke="none" visibility="hidden"></rect></g></svg></g></svg>